<svg width="166" height="48" viewBox="0 0 166 48" fill="none" xmlns="http://www.w3.org/2000/svg">
<g clip-path="url(#clip0_4341_683)">
<g clip-path="url(#clip1_4341_683)">
<path d="M60.2802 14.025V19.5283C58.8893 18.1535 57.0004 17.3834 54.8051 17.3834C50.4427 17.3834 46.792 20.3972 46.792 25.2272V27.5011C46.792 32.3594 50.4165 35.4295 54.8051 35.4295C57.0306 35.4295 58.9417 34.6333 60.3387 33.2181L60.631 34.8127L65.3542 34.8147V12.5715L60.2802 14.025ZM58.6816 30.7527C58.0305 31.4038 57.1536 31.7344 56.0711 31.7344C54.9885 31.7344 54.1096 31.4038 53.4605 30.7507C52.5715 29.8617 52.126 28.3982 52.13 26.4045C52.126 24.4108 52.5735 22.9493 53.4605 22.0582C54.1116 21.4071 54.9906 21.0745 56.0711 21.0745C57.1516 21.0745 58.0305 21.4051 58.6816 22.0562C59.5686 22.9452 60.0161 24.4088 60.0121 26.4025C60.0182 28.4002 59.5706 29.8637 58.6816 30.7527Z" fill="#002A3E"/>
<path d="M79.8399 30.7528C79.1888 31.404 78.3119 31.7346 77.2293 31.7346C76.1468 31.7346 75.2679 31.404 74.6188 30.7508C74.008 30.14 73.6108 29.251 73.4214 28.11H77.2293H86.5104V25.2676C86.5124 23.3324 85.7 21.4072 84.2809 19.9881C83.0935 18.7987 80.9063 17.3835 77.2293 17.3835C73.5504 17.3835 71.3631 18.8007 70.1758 19.9881C68.7586 21.4072 67.9462 23.3324 67.9482 25.2676V27.5415C67.9462 29.4768 68.7586 31.4019 70.1758 32.8211C71.3631 34.0105 73.5504 35.4256 77.2293 35.4256C80.9063 35.4256 83.0935 34.0085 84.2809 32.8211C85.0106 32.0914 85.5751 31.2266 85.9561 30.2972H80.2128C80.0999 30.4625 79.977 30.6157 79.8399 30.7528ZM77.2293 21.0786C78.3098 21.0786 79.1888 21.4092 79.8399 22.0604C80.4507 22.6712 80.8478 23.5622 81.0373 24.7012H73.4193C73.6088 23.5602 74.006 22.6712 74.6168 22.0604C75.2699 21.4092 76.1488 21.0786 77.2293 21.0786Z" fill="#002A3E"/>
<path d="M157.179 30.7528C156.528 31.404 155.651 31.7346 154.569 31.7346C153.486 31.7346 152.607 31.404 151.958 30.7508C151.347 30.14 150.95 29.251 150.761 28.11H154.569H163.85V25.2676C163.852 23.3324 163.039 21.4072 161.62 19.9881C160.433 18.7987 158.246 17.3835 154.569 17.3835C150.89 17.3835 148.702 18.8007 147.515 19.9881C146.098 21.4072 145.286 23.3324 145.288 25.2676V27.5415C145.286 29.4768 146.098 31.4019 147.515 32.8211C148.702 34.0105 150.89 35.4256 154.569 35.4256C158.246 35.4256 160.433 34.0085 161.62 32.8211C162.35 32.0914 162.914 31.2266 163.295 30.2972H157.552C157.437 30.4605 157.314 30.6157 157.179 30.7528ZM154.569 21.0766C155.649 21.0766 156.528 21.4072 157.179 22.0584C157.79 22.6692 158.187 23.5602 158.377 24.6992H150.759C150.948 23.5582 151.345 22.6692 151.956 22.0584C152.607 21.4072 153.486 21.0766 154.569 21.0766Z" fill="#002A3E"/>
<path d="M34.9144 17.3835C31.2354 17.3835 29.0482 18.8007 27.8609 19.9881C26.4437 21.4072 25.6313 23.3324 25.6333 25.2676V27.5415C25.6313 29.4768 26.4437 31.4019 27.8609 32.8211C29.0482 34.0105 31.2354 35.4256 34.9144 35.4256C38.5914 35.4256 40.7786 34.0085 41.9659 32.8211C43.3851 31.4019 44.1975 29.4768 44.1955 27.5415V25.2676C44.1975 23.3324 43.3851 21.4072 41.9659 19.9881C40.7786 18.8007 38.5914 17.3835 34.9144 17.3835ZM37.525 30.7528C36.8738 31.404 35.9969 31.7346 34.9144 31.7346C33.8319 31.7346 32.9529 31.404 32.3038 30.7508C31.4168 29.8618 30.9693 28.3983 30.9734 26.4046C30.9693 24.4109 31.4168 22.9494 32.3038 22.0604C32.955 21.4092 33.8339 21.0766 34.9144 21.0766C35.9949 21.0766 36.8738 21.4072 37.525 22.0584C38.4119 22.9474 38.8595 24.4109 38.8554 26.4046C38.8595 28.4003 38.4119 29.8638 37.525 30.7528Z" fill="#002A3E"/>
<path d="M129.295 19.7439C127.937 18.1877 125.62 17.3894 122.415 17.3713C120.369 17.3612 117.853 17.8006 115.418 18.5868L115.799 22.0945C117.716 21.5804 119.835 21.0422 122.05 21.0422C123.002 21.0422 124.411 21.0946 125.034 21.9533C125.689 22.8565 124.558 23.6185 123.794 23.8785C121.966 24.5054 120.03 24.7977 118.158 25.2634C115.92 25.8198 114.208 28.1743 114.255 30.6256C114.281 32.0166 114.9 33.335 115.912 34.1534C118.472 36.2257 122.927 35.502 125.471 32.9439L125.814 34.8126L130.537 34.8146L130.499 22.8887C130.501 21.7659 130.061 20.6209 129.295 19.7439ZM125.465 30.3152C124.123 31.5348 122.369 32.0872 120.587 31.6759C119.635 31.4582 119.043 30.5007 119.21 29.4504C119.444 27.9869 121.018 27.5776 121.776 27.3821L125.473 26.4528L125.465 30.3152Z" fill="#002A3E"/>
<path d="M138.417 12.5715L133.142 14.023V28.763C133.142 31.9763 134.662 34.3148 137.208 35.0143C139.016 35.5122 141.014 35.4678 143.241 34.8973V31.2184C142.546 31.3635 141.814 31.4321 140.965 31.4119C139.679 31.3796 138.466 30.0955 138.466 28.7711L138.415 21.0402H143.243V17.9015H138.417V12.5715Z" fill="#002A3E"/>
<path d="M15.7574 30.3072C14.8139 31.2526 13.5399 31.7324 11.9695 31.7324C10.3992 31.7324 9.12312 31.2526 8.17969 30.3052C6.89155 29.015 6.24243 26.8923 6.24848 23.9975C6.24243 21.1047 6.89155 18.982 8.17969 17.6919C9.12312 16.7464 10.3992 16.2646 11.9695 16.2646C13.5379 16.2646 14.8139 16.7444 15.7574 17.6898C16.5637 18.4982 17.1201 19.6311 17.4205 21.0765H23.587C23.2645 19.1473 22.3311 17.3048 20.8978 15.8715C19.396 14.3657 16.6242 12.5715 11.9675 12.5715C7.30884 12.5715 4.53902 14.3657 3.03317 15.8715C1.23904 17.6697 0.208925 20.1069 0.21094 22.5582V25.4368C0.208925 27.8882 1.23702 30.3253 3.03317 32.1255C4.53701 33.6314 7.30884 35.4255 11.9675 35.4255C16.6242 35.4255 19.396 33.6314 20.8978 32.1255C22.3311 30.6902 23.2645 28.8477 23.587 26.9165H17.4205C17.1201 28.3639 16.5637 29.4988 15.7574 30.3072Z" fill="#002A3E"/>
<path d="M100.862 22.2941V25.7029H105.974V28.1079C105.655 28.9969 105.22 29.7367 104.651 30.3072C103.708 31.2526 102.434 31.7324 100.864 31.7324C99.2932 31.7324 98.0171 31.2526 97.0737 30.3052C95.7855 29.015 95.1364 26.8923 95.1425 23.9975C95.1364 21.1047 95.7855 18.982 97.0737 17.6919C98.0171 16.7464 99.2932 16.2646 100.864 16.2646C102.432 16.2646 103.708 16.7444 104.651 17.6898C105.22 18.2583 105.655 18.9981 105.974 19.8851H112.211C111.755 18.3974 110.929 17.0065 109.794 15.8715C108.292 14.3657 105.52 12.5715 100.864 12.5715C96.2048 12.5715 93.435 14.3657 91.9292 15.8715C90.135 17.6697 89.1049 20.1069 89.1069 22.5582V25.4368C89.1049 27.8882 90.133 30.3253 91.9292 32.1255C93.433 33.6314 96.2048 35.4255 100.864 35.4255C105.52 35.4255 108.292 33.6314 109.794 32.1255C110.929 30.9886 112.211 29.7045 112.211 29.7045V22.2921H100.862V22.2941Z" fill="#002A3E"/>
</g>
</g>
<defs>
<clipPath id="clip0_4341_683">
<rect width="165.12" height="48" fill="white" transform="translate(0 0.000488281)"/>
</clipPath>
<clipPath id="clip1_4341_683">
<rect width="165.12" height="48" fill="white" transform="translate(0 0.000488281)"/>
</clipPath>
</defs>
</svg>
